<?xml version="1.0" encoding="UTF-8" ?>
<!DOCTYPE svg PUBLIC "-//W3C//DTD SVG 1.1//EN" "http://www.w3.org/Graphics/SVG/1.1/DTD/svg11.dtd">
<svg width="320pt" height="320pt" viewBox="0 0 320 320" version="1.1" xmlns="http://www.w3.org/2000/svg">
<g id="#0000002e">
<path fill="#000000" opacity="0.18" d=" M 50.33 5.55 C 95.57 4.39 140.79 5.44 186.05 4.82 C 196.04 4.50 206.01 5.44 215.99 4.89 C 222.66 5.47 229.34 5.02 236.01 4.97 C 241.68 5.54 247.34 4.44 253.00 5.04 C 260.63 5.65 268.39 4.59 275.91 6.37 C 282.12 7.70 288.44 9.48 293.56 13.39 C 298.89 17.33 304.25 21.75 307.10 27.89 C 313.08 35.87 314.79 46.20 314.68 55.97 C 314.78 125.64 314.77 195.32 314.69 265.00 C 314.93 275.71 312.46 287.01 305.30 295.29 C 301.60 300.91 296.06 304.83 290.68 308.68 C 283.02 313.30 273.90 314.86 265.05 314.69 C 195.70 314.76 126.36 314.75 57.01 314.69 C 48.51 314.87 39.79 313.69 32.12 309.87 C 29.36 307.87 26.36 306.28 23.44 304.55 C 18.08 299.85 13.17 294.42 10.04 287.97 C 7.56 282.22 6.08 276.04 5.44 269.82 C 4.99 260.21 5.51 250.58 4.87 240.98 C 5.45 229.65 5.18 218.30 4.81 206.97 C 5.47 197.64 5.16 188.29 4.89 178.95 C 5.58 171.64 4.54 164.33 5.10 157.01 C 4.28 141.36 5.57 125.70 4.79 110.06 C 5.61 100.37 4.54 90.68 4.83 80.98 C 4.59 72.97 5.46 65.00 5.28 57.00 C 5.09 47.73 7.29 38.46 11.37 30.15 C 16.18 22.30 22.83 15.56 30.85 10.98 C 36.98 8.09 43.60 6.30 50.33 5.55 M 53.44 8.65 C 46.32 9.65 39.11 11.24 32.78 14.79 C 25.43 19.61 19.12 26.01 14.40 33.42 C 10.25 41.96 8.26 51.55 8.38 61.04 C 8.08 104.70 8.33 148.36 8.22 192.02 C 8.32 216.36 8.08 240.70 8.45 265.03 C 9.12 273.03 10.93 281.14 14.76 288.25 C 22.15 299.08 33.19 309.22 46.97 309.79 C 57.94 311.23 69.01 310.53 80.02 311.24 C 140.33 311.03 200.65 311.69 260.95 310.74 C 268.69 310.73 276.49 309.79 283.92 307.63 C 291.42 305.37 296.22 298.88 301.60 293.66 C 306.73 288.81 308.75 281.73 309.57 274.93 C 311.04 267.37 310.70 259.65 310.76 252.00 C 311.50 238.35 311.31 224.67 311.06 211.01 C 311.42 173.34 311.15 135.65 311.21 97.97 C 311.45 91.29 310.56 84.64 311.21 77.97 C 310.36 67.67 311.23 57.30 309.86 47.03 C 309.11 33.29 299.22 22.06 288.23 14.79 C 279.29 10.09 269.02 8.11 258.96 8.35 C 236.97 8.13 214.97 8.28 192.98 8.23 C 148.32 8.32 103.67 8.06 59.01 8.40 C 57.15 8.41 55.29 8.44 53.44 8.65 Z" />
</g>
<g id="#0000005c">
<path fill="#000000" opacity="0.36" d=" M 53.44 8.65 C 55.29 8.44 57.15 8.41 59.01 8.40 C 103.67 8.06 148.32 8.32 192.98 8.23 C 214.97 8.28 236.97 8.13 258.96 8.35 C 269.02 8.11 279.29 10.09 288.23 14.79 C 299.22 22.06 309.11 33.29 309.86 47.03 C 311.23 57.30 310.36 67.67 311.21 77.97 C 310.56 84.64 311.45 91.29 311.21 97.97 C 311.15 135.65 311.42 173.34 311.06 211.01 C 311.31 224.67 311.50 238.35 310.76 252.00 C 310.70 259.65 311.04 267.37 309.57 274.93 C 308.75 281.73 306.73 288.81 301.60 293.66 C 296.22 298.88 291.42 305.37 283.92 307.63 C 276.49 309.79 268.69 310.73 260.95 310.74 C 200.65 311.69 140.33 311.03 80.02 311.24 C 69.01 310.53 57.94 311.23 46.97 309.79 C 33.19 309.22 22.15 299.08 14.76 288.25 C 10.93 281.14 9.12 273.03 8.45 265.03 C 8.08 240.70 8.32 216.36 8.22 192.02 C 8.33 148.36 8.08 104.70 8.38 61.04 C 8.26 51.55 10.25 41.96 14.40 33.42 C 19.12 26.01 25.43 19.61 32.78 14.79 C 39.11 11.24 46.32 9.65 53.44 8.65 M 57.38 12.99 L 56.77 14.40 C 50.68 14.39 44.28 14.17 38.67 16.96 C 26.73 22.03 17.38 33.04 14.76 45.78 C 14.39 46.13 13.66 46.82 13.29 47.17 C 12.13 52.36 11.38 57.69 11.36 63.02 C 10.96 121.68 11.17 180.33 11.20 238.98 C 11.55 253.04 9.86 267.86 15.71 281.07 C 15.86 280.50 16.18 279.36 16.33 278.79 C 20.12 290.40 29.73 299.74 41.09 303.99 C 45.85 305.86 51.01 305.58 56.02 305.77 C 63.98 306.72 72.00 306.18 79.99 306.34 C 139.34 306.33 198.69 306.39 258.04 306.31 C 266.09 305.17 274.62 306.75 282.21 303.17 C 288.89 300.79 293.66 295.37 298.41 290.39 C 303.13 284.38 306.06 276.72 305.63 269.01 C 306.84 254.38 306.17 239.68 306.34 225.02 C 306.33 170.33 306.38 115.64 306.32 60.96 C 306.30 58.31 305.89 55.69 305.72 53.05 C 306.41 31.94 286.18 13.04 265.25 14.41 L 264.65 13.05 C 259.50 12.11 254.24 11.69 249.00 11.69 C 190.32 11.56 131.64 11.57 72.96 11.68 C 67.74 11.71 62.53 12.30 57.38 12.99 Z" />
</g>
<g id="#00000080">
<path fill="#000000" opacity="0.50" d=" M 57.38 12.99 C 62.53 12.30 67.74 11.71 72.96 11.68 C 131.64 11.57 190.32 11.56 249.00 11.69 C 254.24 11.69 259.50 12.11 264.65 13.05 L 265.25 14.41 C 195.76 14.37 126.26 14.38 56.77 14.40 L 57.38 12.99 Z" />
</g>
<g id="#000000c4">
<path fill="#000000" opacity="0.77" d=" M 38.67 16.96 C 44.28 14.17 50.68 14.39 56.77 14.40 C 126.26 14.38 195.76 14.37 265.25 14.41 C 286.18 13.04 306.41 31.94 305.72 53.05 C 305.89 55.69 306.30 58.31 306.32 60.96 C 306.38 115.64 306.33 170.33 306.34 225.02 C 306.17 239.68 306.84 254.38 305.63 269.01 C 306.06 276.72 303.13 284.38 298.41 290.39 C 293.66 295.37 288.89 300.79 282.21 303.17 C 274.62 306.75 266.09 305.17 258.04 306.31 C 198.69 306.39 139.34 306.33 79.99 306.34 C 72.00 306.18 63.98 306.72 56.02 305.77 C 51.01 305.58 45.85 305.86 41.09 303.99 C 29.73 299.74 20.12 290.40 16.33 278.79 C 15.29 274.25 14.32 269.67 14.48 264.98 C 14.22 212.65 14.42 160.31 14.35 107.97 C 14.42 87.24 14.18 66.51 14.76 45.78 C 17.38 33.04 26.73 22.03 38.67 16.96 M 21.34 38.05 C 17.60 41.48 17.56 47.26 16.60 51.96 C 16.27 68.29 16.35 84.64 16.39 100.98 C 16.35 153.30 16.37 205.63 16.39 257.95 C 16.46 263.11 16.63 268.49 18.81 273.27 C 20.75 287.37 32.65 299.26 46.75 301.22 C 51.63 304.06 57.58 303.55 63.02 303.66 C 129.67 303.65 196.33 303.70 262.98 303.62 C 266.49 303.39 270.43 303.50 273.34 301.22 C 287.41 299.24 299.26 287.38 301.22 273.31 C 303.62 270.47 303.31 266.45 303.59 262.97 C 303.73 194.98 303.64 126.98 303.65 58.99 C 303.71 54.78 302.63 50.66 301.21 46.74 C 299.11 31.23 284.77 18.33 269.00 18.60 C 196.34 18.56 123.67 18.55 51.00 18.61 C 38.40 18.48 26.46 26.64 21.34 38.05 Z" />
</g>
<g id="#0d4415ff">
<path fill="#0d4415" opacity="1.00" d=" M 21.34 38.05 C 26.46 26.64 38.40 18.48 51.00 18.61 C 123.67 18.55 196.34 18.56 269.00 18.60 C 284.77 18.33 299.11 31.23 301.21 46.74 C 301.34 122.26 301.32 197.79 301.22 273.31 C 299.26 287.38 287.41 299.24 273.34 301.22 C 197.81 301.33 122.28 301.32 46.75 301.22 C 32.65 299.26 20.75 287.37 18.81 273.27 C 18.61 199.51 18.78 125.76 18.72 52.00 C 18.61 47.22 19.55 42.48 21.34 38.05 M 27.58 34.59 C 23.48 40.18 21.91 47.20 22.03 54.04 C 22.04 61.42 21.86 68.80 22.09 76.17 C 22.22 89.56 21.59 102.99 22.30 116.37 C 21.95 131.01 21.77 145.72 22.27 160.36 C 21.78 187.23 22.12 214.12 22.00 241.00 C 21.97 243.75 22.05 246.52 22.71 249.21 C 22.84 250.31 23.07 251.40 23.42 252.47 C 22.08 257.87 22.89 263.48 22.66 268.98 C 22.26 282.00 32.21 293.86 44.60 297.06 C 47.74 297.41 50.90 297.56 54.07 297.43 C 57.71 297.49 61.35 297.54 64.99 297.44 C 68.68 297.51 72.37 297.55 76.06 297.46 C 80.07 297.50 84.08 297.55 88.10 297.47 C 94.71 297.45 101.33 297.58 107.94 297.49 C 111.64 297.50 115.33 297.53 119.03 297.49 C 122.36 297.50 125.69 297.52 129.02 297.49 C 132.33 297.50 135.64 297.52 138.95 297.49 C 142.62 297.49 146.28 297.52 149.95 297.49 C 156.95 297.51 163.96 297.51 170.97 297.49 C 174.63 297.52 178.30 297.50 181.96 297.49 C 185.64 297.53 189.32 297.50 193.00 297.49 C 196.64 297.52 200.29 297.50 203.95 297.49 C 207.62 297.53 211.30 297.50 214.98 297.48 C 219.00 297.54 223.03 297.50 227.06 297.48 C 230.72 297.54 234.38 297.51 238.05 297.48 C 244.69 297.58 251.34 297.46 257.98 297.42 C 261.68 297.55 265.37 297.48 269.07 297.46 C 273.19 297.70 277.16 296.47 280.92 294.90 C 291.16 290.32 297.89 279.13 297.37 267.96 C 297.10 262.80 297.97 257.53 296.61 252.48 C 296.95 251.40 297.17 250.30 297.27 249.18 C 298.33 244.18 297.83 239.03 297.97 233.95 C 297.90 221.40 298.07 208.85 297.77 196.30 C 298.27 187.87 297.88 179.43 298.00 170.99 C 297.85 160.46 298.22 149.90 297.71 139.39 C 298.28 124.42 297.98 109.40 297.72 94.43 C 298.35 87.63 297.88 80.80 298.01 73.99 C 297.87 64.66 298.44 55.29 297.25 46.01 C 295.14 33.05 283.14 22.72 270.07 22.25 C 197.03 21.77 123.98 21.89 50.93 22.19 C 41.78 22.33 32.79 27.04 27.58 34.59 Z" />
</g>
<g id="#067420ff">
<path fill="#067420" opacity="1.00" d=" M 27.58 34.59 C 32.79 27.04 41.78 22.33 50.93 22.19 C 123.98 21.89 197.03 21.77 270.07 22.25 C 283.14 22.72 295.14 33.05 297.25 46.01 C 259.50 46.11 221.75 46.04 184.00 46.06 C 178.30 46.12 172.54 45.56 166.91 46.76 C 167.60 43.81 168.42 40.90 169.15 37.96 C 168.56 38.38 167.97 38.81 167.40 39.25 C 164.23 41.39 162.75 45.08 160.65 48.13 C 158.65 49.65 156.76 51.89 154.05 51.91 C 110.74 52.11 67.42 51.77 24.12 52.03 C 23.42 52.70 22.73 53.37 22.03 54.04 C 21.91 47.20 23.48 40.18 27.58 34.59 Z" />
</g>
<g id="#000000df">
<path fill="#000000" opacity="0.87" d=" M 16.60 51.96 C 17.56 47.26 17.60 41.48 21.34 38.05 C 19.55 42.48 18.61 47.22 18.72 52.00 C 18.78 125.76 18.61 199.51 18.81 273.27 C 16.63 268.49 16.46 263.11 16.39 257.95 C 16.37 205.63 16.35 153.30 16.39 100.98 C 16.35 84.64 16.27 68.29 16.60 51.96 Z" />
</g>
<g id="#050505ff">
<path fill="#050505" opacity="1.00" d=" M 167.40 39.25 C 167.97 38.81 168.56 38.38 169.15 37.96 C 168.42 40.90 167.60 43.81 166.91 46.76 C 165.73 51.81 165.10 56.96 164.95 62.14 C 165.42 62.51 166.36 63.26 166.83 63.63 C 166.63 66.47 166.31 69.30 165.85 72.11 C 167.61 74.24 167.74 76.90 167.36 79.53 C 167.94 79.78 169.10 80.26 169.68 80.50 C 169.56 82.14 169.41 83.77 169.31 85.40 C 169.92 85.48 171.14 85.64 171.75 85.72 C 171.61 88.10 171.48 90.49 171.33 92.87 C 172.17 93.38 173.01 93.89 173.85 94.41 C 173.65 97.44 173.08 100.42 172.21 103.33 C 172.98 103.41 174.51 103.56 175.28 103.64 C 174.67 107.66 173.99 111.66 173.22 115.66 C 174.15 115.54 176.01 115.30 176.94 115.19 C 176.50 118.66 175.63 122.06 174.38 125.33 C 175.03 125.59 176.35 126.11 177.01 126.37 C 176.95 126.95 176.85 128.12 176.80 128.71 C 176.57 132.14 174.79 135.12 173.22 138.08 C 174.51 138.33 175.81 138.59 177.10 138.85 C 175.88 141.91 174.60 144.94 173.30 147.96 C 174.01 148.31 175.44 149.00 176.15 149.34 C 175.05 152.89 173.35 156.20 171.36 159.32 C 172.23 160.15 173.09 161.02 173.96 161.86 C 172.63 164.30 171.31 166.75 170.04 169.23 C 170.26 170.12 170.48 171.02 170.71 171.92 C 168.12 176.93 166.14 182.16 165.54 187.81 C 163.74 194.66 163.06 201.74 161.79 208.71 C 161.17 205.09 160.63 201.46 160.51 197.79 C 160.21 191.52 161.19 185.28 161.07 179.01 C 161.03 174.82 160.98 170.64 161.09 166.47 C 162.56 172.52 161.37 178.84 162.33 184.98 C 164.88 177.84 167.65 170.62 168.22 162.99 C 168.35 160.12 169.85 157.59 170.44 154.82 C 170.56 149.12 170.37 143.39 170.84 137.71 C 172.17 132.82 171.37 127.78 171.47 122.79 C 171.49 119.79 170.01 117.03 169.89 114.04 C 169.53 106.29 168.89 98.49 166.78 90.99 C 165.52 85.87 162.95 81.13 162.25 75.86 C 161.40 68.90 161.53 61.78 159.77 54.95 C 161.64 49.41 164.73 44.41 167.40 39.25 Z" />
</g>
<g id="#3ccc3cff">
<path fill="#3ccc3c" opacity="1.00" d=" M 160.65 48.13 C 162.75 45.08 164.23 41.39 167.40 39.25 C 164.73 44.41 161.64 49.41 159.77 54.95 C 158.80 56.80 159.01 60.24 156.11 60.02 C 155.85 63.15 155.64 66.29 155.34 69.41 C 152.14 71.45 152.95 75.32 152.88 78.55 C 152.21 78.49 150.88 78.37 150.21 78.31 C 150.00 80.79 150.17 83.31 150.47 85.74 C 150.02 86.03 149.12 86.61 148.68 86.89 C 148.93 90.31 149.28 93.72 149.74 97.12 C 148.51 96.30 147.29 95.47 146.08 94.64 C 146.81 89.24 146.99 83.53 149.55 78.58 C 150.59 76.78 150.57 74.66 150.81 72.65 C 153.80 69.81 152.98 65.56 154.14 62.01 C 156.93 57.69 158.54 52.79 160.65 48.13 Z" />
<path fill="#3ccc3c" opacity="1.00" d=" M 211.93 121.43 C 212.96 119.49 213.97 117.30 216.35 116.78 C 215.63 118.28 214.91 119.77 214.18 121.27 C 213.62 121.31 212.49 121.39 211.93 121.43 Z" />
</g>
<g id="#0000007b">
<path fill="#000000" opacity="0.48" d=" M 13.29 47.17 C 13.66 46.82 14.39 46.13 14.76 45.78 C 14.18 66.51 14.42 87.24 14.35 107.97 C 14.42 160.31 14.22 212.65 14.48 264.98 C 14.32 269.67 15.29 274.25 16.33 278.79 C 16.18 279.36 15.86 280.50 15.71 281.07 C 9.86 267.86 11.55 253.04 11.20 238.98 C 11.17 180.33 10.96 121.68 11.36 63.02 C 11.38 57.69 12.13 52.36 13.29 47.17 Z" />
</g>
<g id="#0b7f22ff">
<path fill="#0b7f22" opacity="1.00" d=" M 166.91 46.76 C 172.54 45.56 178.30 46.12 184.00 46.06 C 221.75 46.04 259.50 46.11 297.25 46.01 C 298.44 55.29 297.87 64.66 298.01 73.99 C 297.88 80.80 298.35 87.63 297.72 94.43 C 297.37 91.66 296.95 88.91 296.60 86.15 C 278.34 85.69 260.06 86.14 241.79 85.95 C 241.71 84.56 241.68 83.17 241.52 81.79 C 239.01 79.49 237.99 84.23 236.56 85.73 C 214.97 86.03 193.35 86.07 171.75 85.72 C 171.14 85.64 169.92 85.48 169.31 85.40 C 169.41 83.77 169.56 82.14 169.68 80.50 C 169.10 80.26 167.94 79.78 167.36 79.53 C 167.74 76.90 167.61 74.24 165.85 72.11 C 166.31 69.30 166.63 66.47 166.83 63.63 C 166.36 63.26 165.42 62.51 164.95 62.14 C 165.10 56.96 165.73 51.81 166.91 46.76 Z" />
</g>
<g id="#000000de">
<path fill="#000000" opacity="0.87" d=" M 301.21 46.74 C 302.63 50.66 303.71 54.78 303.65 58.99 C 303.64 126.98 303.73 194.98 303.59 262.97 C 303.31 266.45 303.62 270.47 301.22 273.31 C 301.32 197.79 301.34 122.26 301.21 46.74 Z" />
<path fill="#000000" opacity="0.87" d=" M 46.75 301.22 C 122.28 301.32 197.81 301.33 273.34 301.22 C 270.43 303.50 266.49 303.39 262.98 303.62 C 196.33 303.70 129.67 303.65 63.02 303.66 C 57.58 303.55 51.63 304.06 46.75 301.22 Z" />
</g>
<g id="#0a7e22ff">
<path fill="#0a7e22" opacity="1.00" d=" M 154.05 51.91 C 156.76 51.89 158.65 49.65 160.65 48.13 C 158.54 52.79 156.93 57.69 154.14 62.01 C 152.98 65.56 153.80 69.81 150.81 72.65 C 140.55 73.57 130.26 72.79 119.99 73.05 C 88.65 73.08 57.31 73.06 25.97 73.04 C 23.81 72.60 22.83 74.54 22.09 76.17 C 21.86 68.80 22.04 61.42 22.03 54.04 C 22.73 53.37 23.42 52.70 24.12 52.03 C 67.42 51.77 110.74 52.11 154.05 51.91 Z" />
<path fill="#0a7e22" opacity="1.00" d=" M 269.05 273.50 C 273.15 273.66 277.08 272.35 280.91 271.05 C 281.13 278.99 280.86 286.95 280.92 294.90 C 277.16 296.47 273.19 297.70 269.07 297.46 C 269.03 289.48 268.92 281.49 269.05 273.50 Z" />
</g>
<g id="#191a1cff">
<path fill="#191a1c" opacity="1.00" d=" M 156.11 60.02 C 159.01 60.24 158.80 56.80 159.77 54.95 C 161.53 61.78 161.40 68.90 162.25 75.86 C 162.95 81.13 165.52 85.87 166.78 90.99 C 168.89 98.49 169.53 106.29 169.89 114.04 C 170.01 117.03 171.49 119.79 171.47 122.79 C 171.37 127.78 172.17 132.82 170.84 137.71 C 170.37 143.39 170.56 149.12 170.44 154.82 C 169.85 157.59 168.35 160.12 168.22 162.99 C 167.65 170.62 164.88 177.84 162.33 184.98 C 161.37 178.84 162.56 172.52 161.09 166.47 C 158.98 167.90 159.43 170.73 159.11 172.93 C 158.84 183.04 158.88 193.17 159.57 203.26 C 159.93 201.45 160.30 199.63 160.51 197.79 C 160.63 201.46 161.17 205.09 161.79 208.71 C 161.77 209.23 161.71 210.29 161.69 210.82 C 161.23 210.94 160.31 211.19 159.86 211.32 C 156.85 199.04 156.93 186.10 152.39 174.21 C 153.87 169.44 150.13 165.31 148.64 161.02 C 149.28 160.78 150.57 160.29 151.22 160.05 C 149.34 156.13 147.61 152.14 146.37 147.97 C 146.99 147.80 148.23 147.44 148.85 147.27 C 147.06 143.50 145.84 139.50 144.68 135.51 L 145.17 135.47 C 145.93 135.43 147.44 135.35 148.20 135.30 C 146.73 131.74 145.49 128.10 144.54 124.37 C 145.67 124.54 146.80 124.71 147.93 124.88 C 146.56 121.43 145.37 117.91 144.35 114.33 C 145.26 114.36 147.06 114.42 147.97 114.45 C 146.65 110.85 145.69 107.14 144.92 103.39 C 145.63 103.45 147.05 103.58 147.76 103.64 C 147.05 100.91 146.29 98.18 145.61 95.44 L 146.08 94.64 C 147.29 95.47 148.51 96.30 149.74 97.12 C 149.28 93.72 148.93 90.31 148.68 86.89 C 149.12 86.61 150.02 86.03 150.47 85.74 C 150.17 83.31 150.00 80.79 150.21 78.31 C 150.88 78.37 152.21 78.49 152.88 78.55 C 152.95 75.32 152.14 71.45 155.34 69.41 C 155.64 66.29 155.85 63.15 156.11 60.02 Z" />
<path fill="#191a1c" opacity="1.00" d=" M 85.94 103.97 C 86.54 103.03 87.14 102.10 87.74 101.17 C 93.24 105.64 99.26 109.74 103.31 115.68 C 106.84 120.19 111.61 123.71 114.09 129.02 C 121.40 140.79 128.96 152.63 133.33 165.87 C 134.37 169.07 136.67 172.18 135.59 175.68 C 134.83 178.90 137.73 181.38 139.07 184.03 C 140.88 186.25 141.74 189.70 144.64 190.76 C 146.39 193.64 147.90 196.67 149.84 199.44 C 149.98 198.80 150.26 197.51 150.40 196.87 C 152.17 201.35 155.81 205.92 154.12 210.97 C 148.71 204.29 143.94 197.07 137.84 190.97 C 135.34 187.67 130.93 186.28 129.11 182.43 C 127.09 181.12 125.01 179.90 122.93 178.69 C 123.31 177.75 123.69 176.82 124.07 175.90 C 121.35 174.27 118.69 172.56 116.10 170.75 C 116.45 169.81 116.80 168.87 117.15 167.92 C 115.05 166.32 112.91 164.77 110.80 163.18 C 111.48 162.19 112.15 161.20 112.83 160.22 C 109.71 158.84 107.12 156.59 104.98 153.97 C 105.36 153.09 105.74 152.21 106.13 151.34 C 104.19 149.48 102.30 147.58 100.44 145.65 C 101.07 144.86 101.70 144.07 102.33 143.28 C 100.20 140.74 98.05 138.22 95.91 135.70 C 96.57 134.96 97.24 134.23 97.91 133.50 C 95.44 131.54 92.02 128.98 93.73 125.40 C 92.80 123.96 91.85 122.52 90.93 121.07 C 92.10 118.98 91.02 117.15 89.56 115.57 C 89.98 114.95 90.41 114.33 90.84 113.71 C 88.37 110.86 88.56 106.75 85.94 103.97 Z" />
<path fill="#191a1c" opacity="1.00" d=" M 227.68 108.44 C 228.31 107.32 228.82 106.13 229.44 105.01 C 230.67 105.18 231.89 105.37 233.12 105.55 C 233.54 111.22 231.54 116.61 230.16 122.01 C 229.35 125.28 227.96 128.36 226.26 131.25 C 224.11 134.81 224.04 139.22 221.71 142.69 C 218.71 147.36 215.71 152.03 212.73 156.71 C 210.14 160.84 206.20 164.41 205.36 169.42 C 205.60 170.08 206.08 171.39 206.32 172.05 C 205.53 172.85 204.73 173.66 203.94 174.47 C 201.96 175.75 199.93 176.95 197.93 178.18 C 198.14 179.07 198.36 179.95 198.58 180.85 C 195.04 183.17 191.08 185.21 188.97 189.08 C 181.52 195.79 174.76 203.37 168.60 211.30 L 170.00 212.72 C 169.26 212.40 167.78 211.77 167.04 211.45 C 172.35 204.83 177.02 197.73 181.65 190.62 C 183.82 187.11 186.20 183.64 187.24 179.59 C 181.63 186.71 177.35 194.76 172.23 202.23 C 169.76 205.88 167.78 209.98 164.35 212.87 C 169.20 201.97 176.17 191.49 177.08 179.29 C 177.54 179.03 178.46 178.51 178.91 178.25 C 179.01 175.72 179.13 173.19 179.26 170.66 C 180.32 170.64 181.37 170.63 182.43 170.62 C 182.61 167.43 182.95 164.26 183.43 161.11 L 185.19 160.84 C 185.51 160.78 186.16 160.67 186.49 160.61 C 186.85 158.54 187.14 156.45 187.64 154.41 C 187.81 153.96 188.15 153.05 188.31 152.59 C 189.39 153.02 190.46 153.45 191.54 153.89 C 191.58 150.49 191.95 147.07 193.29 143.92 C 193.48 143.72 193.86 143.32 194.05 143.12 C 194.83 143.42 195.61 143.72 196.39 144.02 C 196.91 142.08 197.44 140.14 197.95 138.19 C 198.53 137.18 199.14 136.19 199.76 135.21 C 200.51 135.91 201.25 136.61 202.00 137.30 C 203.30 134.31 204.54 131.29 205.71 128.25 C 205.80 128.02 205.98 127.56 206.08 127.33 L 206.37 127.38 C 207.02 127.58 208.33 127.99 208.99 128.19 C 209.64 125.99 210.32 123.80 210.99 121.61 L 211.93 121.43 C 212.49 121.39 213.62 121.31 214.18 121.27 C 214.91 119.77 215.63 118.28 216.35 116.78 C 217.34 116.57 218.35 116.42 219.36 116.26 C 220.12 115.10 220.87 113.93 221.72 112.83 C 222.25 112.74 223.31 112.54 223.84 112.44 C 224.30 111.53 224.72 110.61 225.10 109.67 C 225.38 109.54 225.92 109.29 226.19 109.17 C 226.56 108.99 227.30 108.62 227.68 108.44 Z" />
<path fill="#191a1c" opacity="1.00" d=" M 67.21 173.78 C 74.04 172.66 80.58 175.39 87.03 177.17 C 94.80 179.22 101.60 183.64 108.68 187.28 C 116.46 191.18 122.75 197.32 129.77 202.35 C 129.68 202.80 129.48 203.72 129.39 204.18 C 130.88 205.89 132.52 207.45 134.13 209.04 C 132.39 209.25 130.66 209.50 128.91 209.63 C 126.31 209.04 122.91 209.76 121.27 207.17 C 118.77 206.77 114.74 207.94 114.12 204.46 C 112.17 204.30 110.21 204.17 108.25 204.05 C 108.37 203.41 108.62 202.13 108.74 201.49 C 106.25 201.39 103.77 201.11 101.33 200.60 C 101.13 200.05 100.74 198.93 100.54 198.37 C 98.54 197.93 96.54 197.48 94.54 197.01 C 94.66 196.40 94.89 195.16 95.00 194.54 C 92.80 193.88 90.59 193.23 88.39 192.56 C 88.38 192.02 88.37 190.93 88.36 190.39 C 86.66 189.93 84.96 189.47 83.26 189.01 C 83.09 188.43 82.75 187.29 82.58 186.71 C 80.84 185.91 78.75 185.28 78.22 183.17 C 77.72 182.97 76.73 182.59 76.24 182.39 C 76.07 181.85 75.74 180.77 75.57 180.23 C 75.01 180.04 73.88 179.66 73.32 179.47 C 73.07 178.97 72.55 177.97 72.30 177.47 C 71.11 177.08 69.92 176.71 68.74 176.32 C 68.36 175.68 67.59 174.41 67.21 173.78 Z" />
<path fill="#191a1c" opacity="1.00" d=" M 224.18 180.20 C 230.46 178.70 236.48 175.73 243.06 175.85 C 244.95 175.50 246.10 177.12 247.15 178.38 C 243.89 181.78 241.05 185.93 236.62 187.89 C 236.20 188.73 235.78 189.58 235.36 190.43 C 233.97 190.71 232.56 190.94 231.16 191.22 C 231.07 191.86 230.87 193.12 230.77 193.76 C 228.59 194.38 226.41 195.00 224.24 195.63 C 224.29 196.37 224.33 197.12 224.37 197.87 C 224.11 198.05 223.58 198.41 223.32 198.58 C 221.71 198.85 220.10 199.08 218.49 199.30 C 218.31 199.95 217.94 201.25 217.76 201.90 C 215.28 202.30 212.76 202.49 210.25 202.51 C 210.46 203.40 210.66 204.30 210.87 205.19 C 209.09 205.25 207.32 205.32 205.54 205.42 C 204.79 206.22 204.54 207.70 203.35 207.98 C 201.54 208.12 199.73 208.18 197.92 208.25 C 197.23 209.00 196.54 209.75 195.82 210.47 C 191.29 210.21 186.87 211.59 182.39 212.13 C 178.48 213.05 174.70 214.47 170.71 215.02 L 170.75 214.62 C 170.87 213.98 171.12 212.71 171.25 212.07 C 176.58 208.12 181.76 203.98 186.99 199.91 C 188.91 198.38 189.92 195.14 192.91 195.72 C 194.40 193.93 195.85 192.12 197.33 190.33 C 198.12 190.48 198.92 190.64 199.73 190.80 C 201.08 189.17 202.47 187.57 203.91 186.01 C 204.80 186.23 205.69 186.46 206.58 186.69 C 206.90 186.32 207.53 185.58 207.85 185.21 C 208.04 185.60 208.42 186.37 208.61 186.76 C 214.15 185.41 218.62 181.48 224.18 180.20 M 178.72 208.71 C 176.61 209.87 174.22 210.82 172.80 212.89 C 178.55 210.15 184.81 207.96 189.78 203.91 C 185.80 204.75 182.32 206.92 178.72 208.71 Z" />
<path fill="#191a1c" opacity="1.00" d=" M 146.11 209.35 C 147.68 210.45 149.31 211.48 150.89 212.59 C 151.18 212.94 151.77 213.63 152.07 213.98 C 152.94 214.98 153.85 215.94 154.77 216.90 C 153.81 216.67 152.85 216.45 151.89 216.24 C 149.54 215.32 147.23 214.31 144.88 213.40 C 145.33 213.25 146.22 212.96 146.66 212.81 C 145.59 211.99 144.52 211.18 143.45 210.36 C 144.11 210.11 145.44 209.60 146.11 209.35 Z" />
<path fill="#191a1c" opacity="1.00" d=" M 170.00 212.72 L 170.31 212.73 C 170.20 212.79 170.00 212.91 169.90 212.97 L 170.00 212.72 Z" />
</g>
<g id="#0f8924ff">
<path fill="#0f8924" opacity="1.00" d=" M 119.99 73.05 C 130.26 72.79 140.55 73.57 150.81 72.65 C 150.57 74.66 150.59 76.78 149.55 78.58 C 146.99 83.53 146.81 89.24 146.08 94.64 C 145.38 94.86 143.98 95.28 143.28 95.49 C 142.72 100.62 142.11 105.74 141.64 110.87 C 130.31 111.11 118.97 110.89 107.64 110.87 C 104.79 109.84 103.54 106.96 102.00 104.60 C 101.48 104.68 100.44 104.84 99.92 104.91 C 99.02 103.51 98.11 102.11 97.22 100.70 C 96.63 100.57 95.44 100.32 94.84 100.20 C 93.54 98.72 92.24 97.24 90.94 95.77 C 90.30 95.69 89.03 95.55 88.39 95.48 C 83.46 90.75 77.74 86.92 71.74 83.69 C 72.03 84.21 72.63 85.24 72.92 85.76 C 72.48 85.89 71.60 86.15 71.15 86.29 C 74.57 90.41 78.28 94.29 81.53 98.55 C 81.64 100.97 81.76 103.39 81.88 105.81 C 62.36 106.39 42.82 105.50 23.30 106.21 C 23.12 109.61 22.77 112.99 22.30 116.37 C 21.59 102.99 22.22 89.56 22.09 76.17 C 22.83 74.54 23.81 72.60 25.97 73.04 C 57.31 73.06 88.65 73.08 119.99 73.05 Z" />
</g>
<g id="#128e25ff">
<path fill="#128e25" opacity="1.00" d=" M 236.56 85.73 C 237.99 84.23 239.01 79.49 241.52 81.79 C 241.04 83.53 240.47 85.25 239.86 86.96 C 239.79 86.26 239.65 84.86 239.58 84.17 C 238.37 90.70 235.64 96.88 232.09 102.46 C 232.25 102.70 232.56 103.17 232.71 103.40 C 231.79 103.72 230.87 104.06 229.96 104.41 C 229.63 104.54 228.98 104.81 228.66 104.95 C 227.80 106.34 227.01 107.76 226.19 109.17 C 225.92 109.29 225.38 109.54 225.10 109.67 L 224.56 109.94 C 223.44 110.71 222.53 111.75 221.72 112.83 C 220.87 113.93 220.12 115.10 219.36 116.26 C 218.35 116.42 217.34 116.57 216.35 116.78 C 213.97 117.30 212.96 119.49 211.93 121.43 L 210.99 121.61 C 208.69 122.82 207.55 125.21 206.37 127.38 L 206.08 127.33 C 202.37 127.47 198.67 127.90 194.96 127.91 C 188.90 128.06 182.75 127.23 176.80 128.71 C 176.85 128.12 176.95 126.95 177.01 126.37 C 176.35 126.11 175.03 125.59 174.38 125.33 C 175.63 122.06 176.50 118.66 176.94 115.19 C 176.01 115.30 174.15 115.54 173.22 115.66 C 173.99 111.66 174.67 107.66 175.28 103.64 C 174.51 103.56 172.98 103.41 172.21 103.33 C 173.08 100.42 173.65 97.44 173.85 94.41 C 173.01 93.89 172.17 93.38 171.33 92.87 C 171.48 90.49 171.61 88.10 171.75 85.72 C 193.35 86.07 214.97 86.03 236.56 85.73 Z" />
</g>
<g id="#0a0a0bff">
<path fill="#0a0a0b" opacity="1.00" d=" M 241.52 81.79 C 241.68 83.17 241.71 84.56 241.79 85.95 C 241.91 91.51 240.17 96.84 239.41 102.27 C 239.82 106.03 237.91 109.40 237.49 113.06 C 237.30 114.90 236.09 116.36 235.19 117.89 C 235.57 118.37 236.34 119.33 236.73 119.81 C 235.66 121.24 234.58 122.66 233.51 124.09 C 233.57 124.71 233.70 125.94 233.76 126.56 C 232.12 128.58 230.44 130.57 228.76 132.56 C 229.61 132.75 231.31 133.13 232.16 133.32 C 230.55 134.92 228.93 136.52 227.30 138.10 C 227.50 139.03 227.70 139.96 227.89 140.89 C 225.73 142.86 223.61 144.87 221.56 146.97 C 222.22 147.21 223.55 147.69 224.21 147.94 C 221.85 150.07 219.36 152.04 216.79 153.92 C 217.50 154.49 218.21 155.06 218.92 155.63 C 216.73 157.65 214.41 159.52 211.94 161.20 C 212.30 162.16 212.65 163.12 213.01 164.08 C 210.71 166.19 208.20 168.08 205.36 169.42 C 206.20 164.41 210.14 160.84 212.73 156.71 C 215.71 152.03 218.71 147.36 221.71 142.69 C 224.04 139.22 224.11 134.81 226.26 131.25 C 227.96 128.36 229.35 125.28 230.16 122.01 C 231.54 116.61 233.54 111.22 233.12 105.55 C 231.89 105.37 230.67 105.18 229.44 105.01 L 229.96 104.41 C 230.87 104.06 231.79 103.72 232.71 103.40 C 235.85 98.28 238.21 92.72 239.86 86.96 C 240.47 85.25 241.04 83.53 241.52 81.79 Z" />
</g>
<g id="#040405ff">
<path fill="#040405" opacity="1.00" d=" M 71.74 83.69 C 77.74 86.92 83.46 90.75 88.39 95.48 C 89.03 95.55 90.30 95.69 90.94 95.77 C 92.24 97.24 93.54 98.72 94.84 100.20 C 95.44 100.32 96.63 100.57 97.22 100.70 C 98.11 102.11 99.02 103.51 99.92 104.91 C 100.44 104.84 101.48 104.68 102.00 104.60 C 103.54 106.96 104.79 109.84 107.64 110.87 C 108.57 113.14 109.66 115.32 110.84 117.47 C 111.51 116.61 112.18 115.75 112.85 114.89 C 113.57 117.02 114.28 119.16 114.97 121.30 C 115.55 121.37 116.71 121.49 117.30 121.56 C 118.23 124.25 119.04 126.98 119.72 129.75 C 120.63 129.56 121.54 129.37 122.45 129.18 C 123.14 131.68 123.77 134.19 124.35 136.72 C 125.00 136.87 126.29 137.17 126.94 137.32 C 127.88 140.09 128.50 142.96 128.74 145.88 C 129.77 145.63 130.80 145.38 131.83 145.13 C 132.64 148.28 133.37 151.45 133.96 154.65 C 134.56 154.90 135.75 155.40 136.34 155.65 C 137.02 158.98 137.55 162.33 137.94 165.71 C 138.56 165.86 139.82 166.16 140.45 166.30 C 140.78 168.93 141.09 171.57 141.60 174.17 L 141.94 175.10 C 144.79 178.33 144.58 182.83 146.35 186.57 C 147.80 189.96 148.71 193.57 150.40 196.87 C 150.26 197.51 149.98 198.80 149.84 199.44 C 147.90 196.67 146.39 193.64 144.64 190.76 C 141.73 185.67 138.87 180.55 135.59 175.68 C 136.67 172.18 134.37 169.07 133.33 165.87 C 128.96 152.63 121.40 140.79 114.09 129.02 C 111.61 123.71 106.84 120.19 103.31 115.68 C 99.26 109.74 93.24 105.64 87.74 101.17 C 87.14 102.10 86.54 103.03 85.94 103.97 C 85.75 102.23 85.96 100.29 84.73 98.87 C 81.39 94.00 77.12 89.88 72.92 85.76 C 72.63 85.24 72.03 84.21 71.74 83.69 Z" />
</g>
<g id="#68f958ff">
<path fill="#68f958" opacity="1.00" d=" M 239.58 84.17 C 239.65 84.86 239.79 86.26 239.86 86.96 C 238.21 92.72 235.85 98.28 232.71 103.40 C 232.56 103.17 232.25 102.70 232.09 102.46 C 235.64 96.88 238.37 90.70 239.58 84.17 Z" />
<path fill="#68f958" opacity="1.00" d=" M 228.66 104.95 C 228.98 104.81 229.63 104.54 229.96 104.41 L 229.44 105.01 C 228.82 106.13 228.31 107.32 227.68 108.44 C 227.30 108.62 226.56 108.99 226.19 109.17 C 227.01 107.76 227.80 106.34 228.66 104.95 Z" />
<path fill="#68f958" opacity="1.00" d=" M 195.82 210.47 C 196.54 209.75 197.23 209.00 197.92 208.25 C 199.73 208.18 201.54 208.12 203.35 207.98 C 201.61 208.57 199.84 209.06 198.08 209.56 L 198.87 210.89 C 193.32 210.72 187.94 212.57 182.39 212.13 C 186.87 211.59 191.29 210.21 195.82 210.47 Z" />
<path fill="#68f958" opacity="1.00" d=" M 194.44 267.51 C 209.12 267.34 223.79 267.60 238.46 267.52 C 238.64 269.22 238.91 270.91 239.26 272.58 C 237.00 272.80 234.76 273.09 232.50 273.34 C 230.67 273.40 228.85 273.43 227.02 273.45 C 222.99 273.44 218.96 273.46 214.93 273.47 C 211.29 273.47 207.66 273.51 204.03 273.52 C 202.03 273.52 200.03 273.52 198.03 273.51 C 196.38 271.81 195.15 269.77 194.44 267.51 Z" />
</g>
<g id="#42d63fff">
<path fill="#42d63f" opacity="1.00" d=" M 71.15 86.29 C 71.60 86.15 72.48 85.89 72.92 85.76 C 77.12 89.88 81.39 94.00 84.73 98.87 C 85.96 100.29 85.75 102.23 85.94 103.97 C 88.56 106.75 88.37 110.86 90.84 113.71 C 90.41 114.33 89.98 114.95 89.56 115.57 C 91.02 117.15 92.10 118.98 90.93 121.07 C 91.85 122.52 92.80 123.96 93.73 125.40 C 92.02 128.98 95.44 131.54 97.91 133.50 C 97.24 134.23 96.57 134.96 95.91 135.70 C 98.05 138.22 100.20 140.74 102.33 143.28 C 101.70 144.07 101.07 144.86 100.44 145.65 C 102.30 147.58 104.19 149.48 106.13 151.34 C 105.74 152.21 105.36 153.09 104.98 153.97 C 107.12 156.59 109.71 158.84 112.83 160.22 C 112.15 161.20 111.48 162.19 110.80 163.18 C 112.91 164.77 115.05 166.32 117.15 167.92 C 116.80 168.87 116.45 169.81 116.10 170.75 C 118.69 172.56 121.35 174.27 124.07 175.90 C 123.69 176.82 123.31 177.75 122.93 178.69 C 125.01 179.90 127.09 181.12 129.11 182.43 C 130.93 186.28 135.34 187.67 137.84 190.97 C 143.94 197.07 148.71 204.29 154.12 210.97 C 153.44 211.98 152.77 212.99 152.07 213.98 C 151.77 213.63 151.18 212.94 150.89 212.59 C 147.58 206.09 142.69 200.58 137.94 195.12 C 133.40 189.61 127.61 185.37 122.40 180.56 C 121.45 179.36 120.97 177.86 120.16 176.57 C 118.50 174.43 115.22 173.71 114.47 170.86 C 113.90 168.41 112.19 166.73 110.07 165.53 C 109.30 164.23 109.46 162.66 109.31 161.21 C 106.98 159.10 103.61 157.43 103.27 153.93 C 102.89 150.81 99.59 149.10 99.29 145.97 C 98.89 141.26 93.42 138.65 94.38 133.55 C 93.56 132.91 92.74 132.28 91.91 131.65 C 91.26 128.02 90.07 124.54 89.01 121.02 C 87.71 116.86 87.58 112.37 85.58 108.42 C 83.91 105.26 83.52 101.55 81.53 98.55 C 78.28 94.29 74.57 90.41 71.15 86.29 Z" />
<path fill="#42d63f" opacity="1.00" d=" M 144.14 104.16 C 145.13 101.31 143.55 97.91 145.61 95.44 C 146.29 98.18 147.05 100.91 147.76 103.64 C 147.05 103.58 145.63 103.45 144.92 103.39 C 145.69 107.14 146.65 110.85 147.97 114.45 C 147.06 114.42 145.26 114.36 144.35 114.33 C 145.37 117.91 146.56 121.43 147.93 124.88 C 146.80 124.71 145.67 124.54 144.54 124.37 C 145.49 128.10 146.73 131.74 148.20 135.30 C 147.44 135.35 145.93 135.43 145.17 135.47 C 144.23 132.24 142.67 128.88 143.71 125.46 C 144.61 122.59 143.57 119.70 142.82 116.94 C 143.44 115.67 144.11 114.43 144.74 113.16 C 143.98 110.22 143.01 107.14 144.14 104.16 Z" />
<path fill="#42d63f" opacity="1.00" d=" M 206.37 127.38 C 207.55 125.21 208.69 122.82 210.99 121.61 C 210.32 123.80 209.64 125.99 208.99 128.19 C 208.33 127.99 207.02 127.58 206.37 127.38 Z" />
</g>
<g id="#139026ff">
<path fill="#139026" opacity="1.00" d=" M 241.79 85.95 C 260.06 86.14 278.34 85.69 296.60 86.15 C 296.95 88.91 297.37 91.66 297.72 94.43 C 297.98 109.40 298.28 124.42 297.71 139.39 C 297.01 134.99 296.92 130.54 296.82 126.10 C 278.89 125.73 260.96 126.07 243.03 125.88 C 239.92 125.81 236.83 126.10 233.76 126.56 C 233.70 125.94 233.57 124.71 233.51 124.09 C 234.58 122.66 235.66 121.24 236.73 119.81 C 236.34 119.33 235.57 118.37 235.19 117.89 C 236.09 116.36 237.30 114.90 237.49 113.06 C 237.91 109.40 239.82 106.03 239.41 102.27 C 240.17 96.84 241.91 91.51 241.79 85.95 Z" />
</g>
<g id="#179928ff">
<path fill="#179928" opacity="1.00" d=" M 143.28 95.49 C 143.98 95.28 145.38 94.86 146.08 94.64 L 145.61 95.44 C 143.55 97.91 145.13 101.31 144.14 104.16 C 143.01 107.14 143.98 110.22 144.74 113.16 C 144.11 114.43 143.44 115.67 142.82 116.94 C 143.57 119.70 144.61 122.59 143.71 125.46 C 142.67 128.88 144.23 132.24 145.17 135.47 L 144.68 135.51 C 140.81 139.49 146.93 144.42 145.02 148.90 C 144.04 151.50 145.88 153.92 146.69 156.31 C 148.03 158.90 147.40 161.85 147.36 164.63 C 147.42 167.69 148.18 170.67 148.90 173.62 C 146.47 173.81 144.03 173.99 141.60 174.17 C 141.09 171.57 140.78 168.93 140.45 166.30 C 139.82 166.16 138.56 165.86 137.94 165.71 C 137.55 162.33 137.02 158.98 136.34 155.65 C 135.75 155.40 134.56 154.90 133.96 154.65 C 133.37 151.45 132.64 148.28 131.83 145.13 C 130.80 145.38 129.77 145.63 128.74 145.88 C 128.50 142.96 127.88 140.09 126.94 137.32 C 126.29 137.17 125.00 136.87 124.35 136.72 C 123.77 134.19 123.14 131.68 122.45 129.18 C 121.54 129.37 120.63 129.56 119.72 129.75 C 119.04 126.98 118.23 124.25 117.30 121.56 C 116.71 121.49 115.55 121.37 114.97 121.30 C 114.28 119.16 113.57 117.02 112.85 114.89 C 112.18 115.75 111.51 116.61 110.84 117.47 C 109.66 115.32 108.57 113.14 107.64 110.87 C 118.97 110.89 130.31 111.11 141.64 110.87 C 142.11 105.74 142.72 100.62 143.28 95.49 Z" />
</g>
<g id="#169627ff">
<path fill="#169627" opacity="1.00" d=" M 81.53 98.55 C 83.52 101.55 83.91 105.26 85.58 108.42 C 87.58 112.37 87.71 116.86 89.01 121.02 C 90.07 124.54 91.26 128.02 91.91 131.65 C 92.41 134.40 92.91 137.16 93.45 139.91 C 70.05 140.14 46.64 139.70 23.24 140.20 C 22.67 146.91 23.44 153.69 22.27 160.36 C 21.77 145.72 21.95 131.01 22.30 116.37 C 22.77 112.99 23.12 109.61 23.30 106.21 C 42.82 105.50 62.36 106.39 81.88 105.81 C 81.76 103.39 81.64 100.97 81.53 98.55 Z" />
</g>
<g id="#5cf74eff">
<path fill="#5cf74e" opacity="1.00" d=" M 221.72 112.83 C 222.53 111.75 223.44 110.71 224.56 109.94 L 225.10 109.67 C 224.72 110.61 224.30 111.53 223.84 112.44 C 223.31 112.54 222.25 112.74 221.72 112.83 Z" />
<path fill="#5cf74e" opacity="1.00" d=" M 159.54 220.82 C 166.59 224.98 174.56 228.24 179.95 234.65 C 179.56 234.79 178.78 235.06 178.40 235.20 C 172.77 230.43 166.60 226.40 160.13 222.88 C 159.98 222.37 159.69 221.33 159.54 220.82 Z" />
<path fill="#5cf74e" opacity="1.00" d=" M 180.54 234.32 C 180.92 234.11 181.68 233.67 182.07 233.46 C 185.13 235.00 187.81 237.18 190.18 239.65 C 190.60 239.56 191.43 239.40 191.85 239.31 C 192.26 239.55 193.10 240.01 193.51 240.25 C 197.14 242.26 200.63 244.54 203.88 247.12 C 198.97 247.60 195.94 242.66 191.49 241.43 C 187.16 240.22 184.01 236.96 180.54 234.32 Z" />
<path fill="#5cf74e" opacity="1.00" d=" M 61.55 267.57 C 74.19 267.54 86.82 267.38 99.46 267.53 C 98.52 268.90 97.70 270.40 96.50 271.58 C 94.49 272.81 92.05 273.00 89.78 273.41 C 89.34 273.43 88.47 273.45 88.04 273.46 C 84.02 273.51 80.01 273.44 76.00 273.46 C 72.32 273.46 68.64 273.44 64.97 273.45 C 61.29 273.45 57.61 273.44 53.94 273.47 C 51.57 273.47 49.19 273.43 46.84 273.19 C 52.08 272.87 59.36 273.75 61.55 267.57 Z" />
</g>
<g id="#189c28ff">
<path fill="#189c28" opacity="1.00" d=" M 233.76 126.56 C 236.83 126.10 239.92 125.81 243.03 125.88 C 260.96 126.07 278.89 125.73 296.82 126.10 C 296.92 130.54 297.01 134.99 297.71 139.39 C 298.22 149.90 297.85 160.46 298.00 170.99 C 297.88 179.43 298.27 187.87 297.77 196.30 C 296.95 188.87 297.27 181.38 297.07 173.92 C 297.07 165.34 297.19 156.75 296.78 148.18 C 272.59 147.75 248.39 148.25 224.21 147.94 C 223.55 147.69 222.22 147.21 221.56 146.97 C 223.61 144.87 225.73 142.86 227.89 140.89 C 227.70 139.96 227.50 139.03 227.30 138.10 C 228.93 136.52 230.55 134.92 232.16 133.32 C 231.31 133.13 229.61 132.75 228.76 132.56 C 230.44 130.57 232.12 128.58 233.76 126.56 Z" />
</g>
<g id="#1a9f29ff">
<path fill="#1a9f29" opacity="1.00" d=" M 194.96 127.91 C 198.67 127.90 202.37 127.47 206.08 127.33 C 205.98 127.56 205.80 128.02 205.71 128.25 C 202.47 129.10 201.67 132.88 199.76 135.21 C 199.14 136.19 198.53 137.18 197.95 138.19 C 197.83 137.63 197.58 136.52 197.45 135.96 C 196.33 138.35 195.35 140.82 194.05 143.12 C 193.86 143.32 193.48 143.72 193.29 143.92 C 190.14 145.75 189.67 149.54 188.31 152.59 C 188.15 153.05 187.81 153.96 187.64 154.41 C 187.01 154.51 186.39 154.63 185.77 154.76 C 185.59 156.79 185.40 158.81 185.19 160.84 L 183.43 161.11 C 180.24 162.17 180.92 166.22 179.63 168.70 C 178.02 171.50 176.60 174.40 175.92 177.59 C 173.23 180.27 172.67 184.07 171.78 187.59 C 169.70 187.66 167.62 187.73 165.54 187.81 C 166.14 182.16 168.12 176.93 170.71 171.92 C 170.48 171.02 170.26 170.12 170.04 169.23 C 171.31 166.75 172.63 164.30 173.96 161.86 C 173.09 161.02 172.23 160.15 171.36 159.32 C 173.35 156.20 175.05 152.89 176.15 149.34 C 175.44 149.00 174.01 148.31 173.30 147.96 C 174.60 144.94 175.88 141.91 177.10 138.85 C 175.81 138.59 174.51 138.33 173.22 138.08 C 174.79 135.12 176.57 132.14 176.80 128.71 C 182.75 127.23 188.90 128.06 194.96 127.91 Z" />
</g>
<g id="#3ab33cff">
<path fill="#3ab33c" opacity="1.00" d=" M 199.76 135.21 C 201.67 132.88 202.47 129.10 205.71 128.25 C 204.54 131.29 203.30 134.31 202.00 137.30 C 201.25 136.61 200.51 135.91 199.76 135.21 Z" />
</g>
<g id="#1ca52aff">
<path fill="#1ca52a" opacity="1.00" d=" M 91.91 131.65 C 92.74 132.28 93.56 132.91 94.38 133.55 C 93.42 138.65 98.89 141.26 99.29 145.97 C 99.59 149.10 102.89 150.81 103.27 153.93 C 103.61 157.43 106.98 159.10 109.31 161.21 C 109.46 162.66 109.30 164.23 110.07 165.53 C 111.41 168.04 112.55 170.66 114.03 173.10 C 115.79 175.20 118.09 176.76 120.06 178.66 C 114.79 179.07 109.41 178.30 104.26 179.75 C 103.73 179.24 103.21 178.74 102.70 178.24 C 101.88 178.46 101.06 178.69 100.24 178.91 C 98.46 177.19 96.69 174.74 93.87 175.52 C 92.75 174.61 91.65 173.69 90.54 172.77 C 90.45 173.40 90.28 174.66 90.19 175.29 C 87.02 173.07 83.28 171.97 79.77 170.44 C 79.40 170.68 78.64 171.17 78.27 171.42 C 72.76 169.41 66.80 169.92 61.07 169.23 C 57.72 168.80 54.35 169.13 51.03 169.60 C 51.17 169.67 51.44 169.81 51.57 169.88 C 53.30 170.85 55.04 171.79 56.85 172.60 C 59.93 174.22 62.96 175.94 65.71 178.09 C 63.90 178.85 61.98 179.36 60.01 179.29 C 47.78 179.25 35.55 179.11 23.32 179.25 C 22.65 195.84 22.66 212.44 22.69 229.04 C 22.58 234.59 22.50 240.15 22.86 245.70 C 22.83 246.58 22.75 248.33 22.71 249.21 C 22.05 246.52 21.97 243.75 22.00 241.00 C 22.12 214.12 21.78 187.23 22.27 160.36 C 23.44 153.69 22.67 146.91 23.24 140.20 C 46.64 139.70 70.05 140.14 93.45 139.91 C 92.91 137.16 92.41 134.40 91.91 131.65 Z" />
</g>
<g id="#47e141ff">
<path fill="#47e141" opacity="1.00" d=" M 145.02 148.90 C 146.93 144.42 140.81 139.49 144.68 135.51 C 145.84 139.50 147.06 143.50 148.85 147.27 C 148.23 147.44 146.99 147.80 146.37 147.97 C 147.61 152.14 149.34 156.13 151.22 160.05 C 150.57 160.29 149.28 160.78 148.64 161.02 C 150.13 165.31 153.87 169.44 152.39 174.21 C 156.93 186.10 156.85 199.04 159.86 211.32 C 159.37 211.44 158.38 211.69 157.89 211.81 C 155.21 204.33 155.44 196.22 153.74 188.51 C 153.06 182.92 150.55 177.68 150.49 172.00 C 150.42 169.23 148.64 166.96 147.36 164.63 C 147.40 161.85 148.03 158.90 146.69 156.31 C 145.88 153.92 144.04 151.50 145.02 148.90 Z" />
<path fill="#47e141" opacity="1.00" d=" M 51.57 169.88 C 56.99 170.24 62.16 171.89 67.21 173.78 C 67.59 174.41 68.36 175.68 68.74 176.32 C 69.92 176.71 71.11 177.08 72.30 177.47 C 72.55 177.97 73.07 178.97 73.32 179.47 C 73.88 179.66 75.01 180.04 75.57 180.23 C 75.74 180.77 76.07 181.85 76.24 182.39 C 76.73 182.59 77.72 182.97 78.22 183.17 C 78.75 185.28 80.84 185.91 82.58 186.71 C 82.75 187.29 83.09 188.43 83.26 189.01 C 84.96 189.47 86.66 189.93 88.36 190.39 C 88.37 190.93 88.38 192.02 88.39 192.56 C 90.59 193.23 92.80 193.88 95.00 194.54 C 94.89 195.16 94.66 196.40 94.54 197.01 C 96.54 197.48 98.54 197.93 100.54 198.37 C 100.74 198.93 101.13 200.05 101.33 200.60 C 103.77 201.11 106.25 201.39 108.74 201.49 C 108.62 202.13 108.37 203.41 108.25 204.05 C 110.21 204.17 112.17 204.30 114.12 204.46 C 114.74 207.94 118.77 206.77 121.27 207.17 C 122.91 209.76 126.31 209.04 128.91 209.63 C 134.37 210.21 139.78 211.35 144.88 213.40 C 147.23 214.31 149.54 215.32 151.89 216.24 C 147.74 217.35 143.98 214.88 140.14 213.78 C 134.02 211.60 127.43 211.60 121.23 209.75 C 116.03 208.23 110.76 206.71 106.01 204.05 C 102.95 202.38 99.39 201.74 96.55 199.64 C 88.76 194.14 80.15 189.58 73.63 182.47 C 68.83 178.13 63.72 172.94 56.85 172.60 C 55.04 171.79 53.30 170.85 51.57 169.88 Z" />
</g>
<g id="#45dc40ff">
<path fill="#45dc40" opacity="1.00" d=" M 194.05 143.12 C 195.35 140.82 196.33 138.35 197.45 135.96 C 197.58 136.52 197.83 137.63 197.95 138.19 C 197.44 140.14 196.91 142.08 196.39 144.02 C 195.61 143.72 194.83 143.42 194.05 143.12 Z" />
<path fill="#45dc40" opacity="1.00" d=" M 188.31 152.59 C 189.67 149.54 190.14 145.75 193.29 143.92 C 191.95 147.07 191.58 150.49 191.54 153.89 C 190.46 153.45 189.39 153.02 188.31 152.59 Z" />
<path fill="#45dc40" opacity="1.00" d=" M 179.63 168.70 C 180.92 166.22 180.24 162.17 183.43 161.11 C 182.95 164.26 182.61 167.43 182.43 170.62 C 181.37 170.63 180.32 170.64 179.26 170.66 C 179.13 173.19 179.01 175.72 178.91 178.25 C 178.46 178.51 177.54 179.03 177.08 179.29 C 176.17 191.49 169.20 201.97 164.35 212.87 C 164.39 214.26 164.72 215.61 164.99 216.97 C 165.52 216.86 166.60 216.65 167.14 216.54 C 166.10 217.30 165.01 217.99 163.93 218.69 C 162.66 217.15 160.94 215.28 162.24 213.19 C 165.90 204.64 171.15 196.71 173.62 187.66 C 174.42 184.31 175.08 180.93 175.92 177.59 C 176.60 174.40 178.02 171.50 179.63 168.70 Z" />
</g>
<g id="#1da62aff">
<path fill="#1da62a" opacity="1.00" d=" M 224.21 147.94 C 248.39 148.25 272.59 147.75 296.78 148.18 C 297.19 156.75 297.07 165.34 297.07 173.92 C 286.12 174.07 275.17 174.08 264.22 174.02 C 265.30 172.95 266.38 171.89 267.50 170.86 C 267.60 170.77 267.80 170.61 267.90 170.53 C 262.09 169.38 256.27 170.77 250.43 170.73 C 246.65 171.07 242.91 171.85 239.10 171.78 C 235.62 173.06 232.08 174.28 228.94 176.31 C 228.81 175.69 228.55 174.44 228.43 173.81 C 227.27 174.88 226.12 175.95 224.96 177.02 C 224.48 176.79 223.50 176.32 223.01 176.09 C 221.64 177.39 220.27 178.69 218.89 179.99 C 218.06 179.79 217.22 179.60 216.39 179.42 C 211.14 178.48 205.79 179.19 200.49 178.82 C 201.65 177.38 202.78 175.91 203.94 174.47 C 204.73 173.66 205.53 172.85 206.32 172.05 C 206.08 171.39 205.60 170.08 205.36 169.42 C 208.20 168.08 210.71 166.19 213.01 164.08 C 212.65 163.12 212.30 162.16 211.94 161.20 C 214.41 159.52 216.73 157.65 218.92 155.63 C 218.21 155.06 217.50 154.49 216.79 153.92 C 219.36 152.04 221.85 150.07 224.21 147.94 Z" />
<path fill="#1da62a" opacity="1.00" d=" M 227.02 273.45 C 228.85 273.43 230.67 273.40 232.50 273.34 C 234.34 273.38 236.18 273.46 238.02 273.50 C 238.16 281.49 238.13 289.49 238.05 297.48 C 234.38 297.51 230.72 297.54 227.06 297.48 C 227.03 289.47 227.06 281.46 227.02 273.45 Z" />
</g>
<g id="#6cf95bff">
<path fill="#6cf95b" opacity="1.00" d=" M 185.77 154.76 C 186.39 154.63 187.01 154.51 187.64 154.41 C 187.14 156.45 186.85 158.54 186.49 160.61 C 186.16 160.67 185.51 160.78 185.19 160.84 C 185.40 158.81 185.59 156.79 185.77 154.76 Z" />
<path fill="#6cf95b" opacity="1.00" d=" M 99.46 267.53 C 109.78 267.54 120.09 267.39 130.41 267.50 C 130.06 270.22 128.63 272.54 126.00 273.50 C 123.66 273.56 121.32 273.52 118.98 273.51 C 115.32 273.48 111.65 273.46 107.98 273.47 C 101.91 273.52 95.84 273.33 89.78 273.41 C 92.05 273.00 94.49 272.81 96.50 271.58 C 97.70 270.40 98.52 268.90 99.46 267.53 Z" />
</g>
<g id="#27bc2fff">
<path fill="#27bc2f" opacity="1.00" d=" M 147.36 164.63 C 148.64 166.96 150.42 169.23 150.49 172.00 C 150.55 177.68 153.06 182.92 153.74 188.51 C 155.44 196.22 155.21 204.33 157.89 211.81 C 158.38 211.69 159.37 211.44 159.86 211.32 C 160.31 211.19 161.23 210.94 161.69 210.82 C 161.71 210.29 161.77 209.23 161.79 208.71 C 163.06 201.74 163.74 194.66 165.54 187.81 C 167.62 187.73 169.70 187.66 171.78 187.59 C 172.67 184.07 173.23 180.27 175.92 177.59 C 175.08 180.93 174.42 184.31 173.62 187.66 C 171.15 196.71 165.90 204.64 162.24 213.19 C 160.94 215.28 162.66 217.15 163.93 218.69 C 165.01 217.99 166.10 217.30 167.14 216.54 C 167.46 215.73 167.75 214.92 168.10 214.12 C 168.55 213.83 169.45 213.26 169.90 212.97 C 170.00 212.91 170.20 212.79 170.31 212.73 L 171.25 212.07 C 171.12 212.71 170.87 213.98 170.75 214.62 C 170.69 214.73 170.58 214.94 170.52 215.04 L 170.71 215.02 C 174.70 214.47 178.48 213.05 182.39 212.13 C 187.94 212.57 193.32 210.72 198.87 210.89 L 198.08 209.56 C 199.84 209.06 201.61 208.57 203.35 207.98 C 204.54 207.70 204.79 206.22 205.54 205.42 C 207.32 205.32 209.09 205.25 210.87 205.19 C 210.66 204.30 210.46 203.40 210.25 202.51 C 212.76 202.49 215.28 202.30 217.76 201.90 C 217.94 201.25 218.31 199.95 218.49 199.30 C 220.10 199.08 221.71 198.85 223.32 198.58 C 224.80 199.29 226.31 200.13 228.01 200.06 C 250.93 200.08 273.86 199.82 296.78 200.18 C 297.12 209.80 297.09 219.43 297.03 229.05 C 266.70 229.02 236.37 229.11 206.04 229.09 C 200.82 229.02 195.58 228.92 190.40 229.63 C 185.37 226.54 180.09 223.84 174.47 222.00 C 169.54 219.54 164.01 221.69 158.91 220.10 L 158.06 219.80 C 157.84 219.73 157.41 219.60 157.19 219.53 C 155.96 220.28 154.78 221.12 153.60 221.94 C 153.26 221.55 152.58 220.75 152.24 220.35 C 147.18 221.59 142.29 223.55 137.65 225.90 C 137.06 225.77 135.87 225.52 135.28 225.39 C 132.32 226.91 129.44 229.11 125.96 229.09 C 91.54 229.07 57.11 229.13 22.69 229.04 C 22.66 212.44 22.65 195.84 23.32 179.25 C 35.55 179.11 47.78 179.25 60.01 179.29 C 61.98 179.36 63.90 178.85 65.71 178.09 C 62.96 175.94 59.93 174.22 56.85 172.60 C 63.72 172.94 68.83 178.13 73.63 182.47 C 80.15 189.58 88.76 194.14 96.55 199.64 C 99.39 201.74 102.95 202.38 106.01 204.05 C 110.76 206.71 116.03 208.23 121.23 209.75 C 127.43 211.60 134.02 211.60 140.14 213.78 C 143.98 214.88 147.74 217.35 151.89 216.24 C 152.85 216.45 153.81 216.67 154.77 216.90 C 153.85 215.94 152.94 214.98 152.07 213.98 C 152.77 212.99 153.44 211.98 154.12 210.97 C 155.81 205.92 152.17 201.35 150.40 196.87 C 148.71 193.57 147.80 189.96 146.35 186.57 C 144.58 182.83 144.79 178.33 141.94 175.10 L 141.60 174.17 C 144.03 173.99 146.47 173.81 148.90 173.62 C 148.18 170.67 147.42 167.69 147.36 164.63 Z" />
<path fill="#27bc2f" opacity="1.00" d=" M 204.03 273.52 C 207.66 273.51 211.29 273.47 214.93 273.47 C 214.94 281.47 215.00 289.48 214.98 297.48 C 211.30 297.50 207.62 297.53 203.95 297.49 C 203.98 289.50 204.13 281.51 204.03 273.52 Z" />
</g>
<g id="#22b22dff">
<path fill="#22b22d" opacity="1.00" d=" M 110.07 165.53 C 112.19 166.73 113.90 168.41 114.47 170.86 C 115.22 173.71 118.50 174.43 120.16 176.57 C 120.97 177.86 121.45 179.36 122.40 180.56 C 127.61 185.37 133.40 189.61 137.94 195.12 C 142.69 200.58 147.58 206.09 150.89 212.59 C 149.31 211.48 147.68 210.45 146.11 209.35 C 141.43 206.22 137.35 202.33 132.77 199.09 C 130.52 197.56 129.48 194.02 126.27 194.37 C 124.74 192.72 123.24 191.03 121.73 189.36 C 121.13 189.35 119.93 189.32 119.33 189.30 C 117.72 187.53 116.07 185.79 114.41 184.07 C 114.05 184.54 113.35 185.47 112.99 185.94 C 111.03 184.04 109.32 180.73 106.08 181.53 C 105.63 181.08 104.71 180.19 104.26 179.75 C 109.41 178.30 114.79 179.07 120.06 178.66 C 118.09 176.76 115.79 175.20 114.03 173.10 C 112.55 170.66 111.41 168.04 110.07 165.53 Z" />
<path fill="#22b22d" opacity="1.00" d=" M 250.04 177.39 C 253.99 172.05 261.52 172.01 267.50 170.86 C 266.38 171.89 265.30 172.95 264.22 174.02 C 275.17 174.08 286.12 174.07 297.07 173.92 C 297.27 181.38 296.95 188.87 297.77 196.30 C 298.07 208.85 297.90 221.40 297.97 233.95 C 297.83 239.03 298.33 244.18 297.27 249.18 C 297.24 248.54 297.16 247.25 297.13 246.61 C 297.25 240.75 297.22 234.90 297.03 229.05 C 297.09 219.43 297.12 209.80 296.78 200.18 C 273.86 199.82 250.93 200.08 228.01 200.06 C 226.31 200.13 224.80 199.29 223.32 198.58 C 223.58 198.41 224.11 198.05 224.37 197.87 C 224.33 197.12 224.29 196.37 224.24 195.63 C 226.41 195.00 228.59 194.38 230.77 193.76 C 230.87 193.12 231.07 191.86 231.16 191.22 C 232.56 190.94 233.97 190.71 235.36 190.43 C 235.78 189.58 236.20 188.73 236.62 187.89 C 241.05 185.93 243.89 181.78 247.15 178.38 C 248.11 178.05 249.08 177.72 250.04 177.39 Z" />
</g>
<g id="#6f6f70ff">
<path fill="#6f6f70" opacity="1.00" d=" M 159.11 172.93 C 159.43 170.73 158.98 167.90 161.09 166.47 C 160.98 170.64 161.03 174.82 161.07 179.01 C 161.19 185.28 160.21 191.52 160.51 197.79 C 160.30 199.63 159.93 201.45 159.57 203.26 C 158.88 193.17 158.84 183.04 159.11 172.93 Z" />
</g>
<g id="#040404ff">
<path fill="#040404" opacity="1.00" d=" M 51.03 169.60 C 54.35 169.13 57.72 168.80 61.07 169.23 C 66.80 169.92 72.76 169.41 78.27 171.42 C 78.64 171.17 79.40 170.68 79.77 170.44 C 83.28 171.97 87.02 173.07 90.19 175.29 C 90.28 174.66 90.45 173.40 90.54 172.77 C 91.65 173.69 92.75 174.61 93.87 175.52 C 96.69 174.74 98.46 177.19 100.24 178.91 C 101.06 178.69 101.88 178.46 102.70 178.24 C 103.21 178.74 103.73 179.24 104.26 179.75 C 104.71 180.19 105.63 181.08 106.08 181.53 C 109.32 180.73 111.03 184.04 112.99 185.94 C 113.35 185.47 114.05 184.54 114.41 184.07 C 116.07 185.79 117.72 187.53 119.33 189.30 C 119.93 189.32 121.13 189.35 121.73 189.36 C 123.24 191.03 124.74 192.72 126.27 194.37 C 129.48 194.02 130.52 197.56 132.77 199.09 C 137.35 202.33 141.43 206.22 146.11 209.35 C 145.44 209.60 144.11 210.11 143.45 210.36 C 144.52 211.18 145.59 211.99 146.66 212.81 C 146.22 212.96 145.33 213.25 144.88 213.40 C 139.78 211.35 134.37 210.21 128.91 209.63 C 130.66 209.50 132.39 209.25 134.13 209.04 C 132.52 207.45 130.88 205.89 129.39 204.18 C 132.08 205.49 134.87 206.63 137.78 207.36 C 135.47 205.15 132.58 203.79 129.77 202.35 C 122.75 197.32 116.46 191.18 108.68 187.28 C 101.60 183.64 94.80 179.22 87.03 177.17 C 80.58 175.39 74.04 172.66 67.21 173.78 C 62.16 171.89 56.99 170.24 51.57 169.88 C 51.44 169.81 51.17 169.67 51.03 169.60 Z" />
</g>
<g id="#0b0c0dff">
<path fill="#0b0c0d" opacity="1.00" d=" M 239.10 171.78 C 242.91 171.85 246.65 171.07 250.43 170.73 C 256.27 170.77 262.09 169.38 267.90 170.53 C 267.80 170.61 267.60 170.77 267.50 170.86 C 261.52 172.01 253.99 172.05 250.04 177.39 C 249.08 177.72 248.11 178.05 247.15 178.38 C 246.10 177.12 244.95 175.50 243.06 175.85 C 236.48 175.73 230.46 178.70 224.18 180.20 C 218.62 181.48 214.15 185.41 208.61 186.76 C 208.42 186.37 208.04 185.60 207.85 185.21 C 209.12 183.63 210.77 181.88 213.00 182.85 C 214.15 181.72 215.27 180.57 216.39 179.42 C 217.22 179.60 218.06 179.79 218.89 179.99 C 220.27 178.69 221.64 177.39 223.01 176.09 C 223.50 176.32 224.48 176.79 224.96 177.02 C 226.12 175.95 227.27 174.88 228.43 173.81 C 228.55 174.44 228.81 175.69 228.94 176.31 C 232.08 174.28 235.62 173.06 239.10 171.78 Z" />
</g>
<g id="#23b22dff">
<path fill="#23b22d" opacity="1.00" d=" M 197.93 178.18 C 199.93 176.95 201.96 175.75 203.94 174.47 C 202.78 175.91 201.65 177.38 200.49 178.82 C 205.79 179.19 211.14 178.48 216.39 179.42 C 215.27 180.57 214.15 181.72 213.00 182.85 C 210.77 181.88 209.12 183.63 207.85 185.21 C 207.53 185.58 206.90 186.32 206.58 186.69 C 205.69 186.46 204.80 186.23 203.91 186.01 C 202.47 187.57 201.08 189.17 199.73 190.80 C 198.92 190.64 198.12 190.48 197.33 190.33 C 195.85 192.12 194.40 193.93 192.91 195.72 C 189.92 195.14 188.91 198.38 186.99 199.91 C 181.76 203.98 176.58 208.12 171.25 212.07 L 170.31 212.73 L 170.00 212.72 L 168.60 211.30 C 174.76 203.37 181.52 195.79 188.97 189.08 C 191.08 185.21 195.04 183.17 198.58 180.85 C 198.36 179.95 198.14 179.07 197.93 178.18 Z" />
</g>
<g id="#4b4b4cff">
<path fill="#4b4b4c" opacity="1.00" d=" M 139.07 184.03 C 137.73 181.38 134.83 178.90 135.59 175.68 C 138.87 180.55 141.73 185.67 144.64 190.76 C 141.74 189.70 140.88 186.25 139.07 184.03 Z" />
</g>
<g id="#7b7c7cff">
<path fill="#7b7c7c" opacity="1.00" d=" M 172.23 202.23 C 177.35 194.76 181.63 186.71 187.24 179.59 C 186.20 183.64 183.82 187.11 181.65 190.62 C 177.02 197.73 172.35 204.83 167.04 211.45 C 167.78 211.77 169.26 212.40 170.00 212.72 L 169.90 212.97 C 169.45 213.26 168.55 213.83 168.10 214.12 C 167.75 214.92 167.46 215.73 167.14 216.54 C 166.60 216.65 165.52 216.86 164.99 216.97 C 164.72 215.61 164.39 214.26 164.35 212.87 C 167.78 209.98 169.76 205.88 172.23 202.23 Z" />
</g>
<g id="#2a2a2bff">
<path fill="#2a2a2b" opacity="1.00" d=" M 129.39 204.18 C 129.48 203.72 129.68 202.80 129.77 202.35 C 132.58 203.79 135.47 205.15 137.78 207.36 C 134.87 206.63 132.08 205.49 129.39 204.18 Z" />
</g>
<g id="#5b5b5cff">
<path fill="#5b5b5c" opacity="1.00" d=" M 178.72 208.71 C 182.32 206.92 185.80 204.75 189.78 203.91 C 184.81 207.96 178.55 210.15 172.80 212.89 C 174.22 210.82 176.61 209.87 178.72 208.71 Z" />
</g>
<g id="#030304ff">
<path fill="#030304" opacity="1.00" d=" M 170.52 215.04 C 170.58 214.94 170.69 214.73 170.75 214.62 L 170.71 215.02 L 170.52 215.04 Z" />
</g>
<g id="#121314ff">
<path fill="#121314" opacity="1.00" d=" M 153.60 221.94 C 154.78 221.12 155.96 220.28 157.19 219.53 C 157.41 219.60 157.84 219.73 158.06 219.80 C 154.13 224.96 148.10 228.07 141.87 229.49 C 134.68 230.87 129.64 236.70 124.78 241.70 C 125.37 234.18 131.94 229.72 137.65 225.90 C 142.29 223.55 147.18 221.59 152.24 220.35 C 152.58 220.75 153.26 221.55 153.60 221.94 M 142.89 226.72 C 145.67 226.00 148.43 224.93 150.46 222.82 C 147.74 223.55 144.41 224.01 142.89 226.72 Z" />
</g>
<g id="#2ecb32ff">
<path fill="#2ecb32" opacity="1.00" d=" M 158.06 219.80 L 158.91 220.10 L 159.54 220.82 C 159.69 221.33 159.98 222.37 160.13 222.88 C 166.60 226.40 172.77 230.43 178.40 235.20 C 178.78 235.06 179.56 234.79 179.95 234.65 C 180.09 234.57 180.39 234.41 180.54 234.32 C 184.01 236.96 187.16 240.22 191.49 241.43 C 195.94 242.66 198.97 247.60 203.88 247.12 C 204.64 247.69 205.39 248.25 206.14 248.83 C 203.41 244.71 200.97 240.37 197.74 236.60 C 197.67 236.06 197.54 234.98 197.48 234.43 C 195.14 232.79 192.82 231.14 190.40 229.63 C 195.58 228.92 200.82 229.02 206.04 229.09 C 236.37 229.11 266.70 229.02 297.03 229.05 C 297.22 234.90 297.25 240.75 297.13 246.61 C 293.98 255.25 287.34 262.26 278.90 265.91 C 276.02 266.78 273.08 267.59 270.05 267.56 C 259.52 267.57 248.99 267.37 238.46 267.52 C 223.79 267.60 209.12 267.34 194.44 267.51 C 173.10 267.47 151.75 267.43 130.41 267.50 C 120.09 267.39 109.78 267.54 99.46 267.53 C 86.82 267.38 74.19 267.54 61.55 267.57 C 55.25 267.21 48.72 268.37 42.63 266.29 C 33.07 263.43 25.73 255.10 22.86 245.70 C 22.50 240.15 22.58 234.59 22.69 229.04 C 57.11 229.13 91.54 229.07 125.96 229.09 C 129.44 229.11 132.32 226.91 135.28 225.39 C 135.87 225.52 137.06 225.77 137.65 225.90 C 131.94 229.72 125.37 234.18 124.78 241.70 C 129.64 236.70 134.68 230.87 141.87 229.49 C 148.10 228.07 154.13 224.96 158.06 219.80 Z" />
</g>
<g id="#111213ff">
<path fill="#111213" opacity="1.00" d=" M 158.91 220.10 C 164.01 221.69 169.54 219.54 174.47 222.00 C 175.27 225.35 179.68 225.60 181.99 227.67 L 180.46 228.04 C 185.06 231.27 189.36 235.14 194.69 237.16 C 195.23 237.67 195.78 238.18 196.33 238.70 C 195.62 239.09 194.22 239.86 193.51 240.25 C 193.10 240.01 192.26 239.55 191.85 239.31 C 191.43 239.40 190.60 239.56 190.18 239.65 C 187.81 237.18 185.13 235.00 182.07 233.46 C 181.68 233.67 180.92 234.11 180.54 234.32 C 180.39 234.41 180.09 234.57 179.95 234.65 C 174.56 228.24 166.59 224.98 159.54 220.82 L 158.91 220.10 Z" />
</g>
<g id="#424242ff">
<path fill="#424242" opacity="1.00" d=" M 142.89 226.72 C 144.41 224.01 147.74 223.55 150.46 222.82 C 148.43 224.93 145.67 226.00 142.89 226.72 Z" />
</g>
<g id="#010101ff">
<path fill="#010101" opacity="1.00" d=" M 181.99 227.67 C 179.68 225.60 175.27 225.35 174.47 222.00 C 180.09 223.84 185.37 226.54 190.40 229.63 C 192.82 231.14 195.14 232.79 197.48 234.43 C 197.54 234.98 197.67 236.06 197.74 236.60 C 200.97 240.37 203.41 244.71 206.14 248.83 C 205.39 248.25 204.64 247.69 203.88 247.12 C 200.63 244.54 197.14 242.26 193.51 240.25 C 194.22 239.86 195.62 239.09 196.33 238.70 C 195.78 238.18 195.23 237.67 194.69 237.16 C 191.03 233.29 186.44 230.51 181.99 227.67 Z" />
</g>
<g id="#363637ff">
<path fill="#363637" opacity="1.00" d=" M 180.46 228.04 L 181.99 227.67 C 186.44 230.51 191.03 233.29 194.69 237.16 C 189.36 235.14 185.06 231.27 180.46 228.04 Z" />
</g>
<g id="#4cf443ff">
<path fill="#4cf443" opacity="1.00" d=" M 22.86 245.70 C 25.73 255.10 33.07 263.43 42.63 266.29 C 48.72 268.37 55.25 267.21 61.55 267.57 C 59.36 273.75 52.08 272.87 46.84 273.19 C 46.14 273.09 44.75 272.89 44.05 272.79 C 34.23 270.14 26.34 262.15 23.42 252.47 C 23.07 251.40 22.84 250.31 22.71 249.21 C 22.75 248.33 22.83 246.58 22.86 245.70 Z" />
</g>
<g id="#47f13fff">
<path fill="#47f13f" opacity="1.00" d=" M 278.90 265.91 C 287.34 262.26 293.98 255.25 297.13 246.61 C 297.16 247.25 297.24 248.54 297.27 249.18 C 297.17 250.30 296.95 251.40 296.61 252.48 C 294.18 260.51 288.38 267.27 280.91 271.05 C 280.50 269.35 280.19 267.64 279.96 265.92 C 279.70 265.92 279.16 265.91 278.90 265.91 Z" />
</g>
<g id="#057220ff">
<path fill="#057220" opacity="1.00" d=" M 23.42 252.47 C 26.34 262.15 34.23 270.14 44.05 272.79 C 43.98 280.87 43.27 289.04 44.60 297.06 C 32.21 293.86 22.26 282.00 22.66 268.98 C 22.89 263.48 22.08 257.87 23.42 252.47 Z" />
</g>
<g id="#04711fff">
<path fill="#04711f" opacity="1.00" d=" M 280.91 271.05 C 288.38 267.27 294.18 260.51 296.61 252.48 C 297.97 257.53 297.10 262.80 297.37 267.96 C 297.89 279.13 291.16 290.32 280.92 294.90 C 280.86 286.95 281.13 278.99 280.91 271.05 Z" />
</g>
<g id="#56f549ff">
<path fill="#56f549" opacity="1.00" d=" M 270.05 267.56 C 273.08 267.59 276.02 266.78 278.90 265.91 C 279.16 265.91 279.70 265.92 279.96 265.92 C 280.19 267.64 280.50 269.35 280.91 271.05 C 277.08 272.35 273.15 273.66 269.05 273.50 C 265.35 273.49 261.65 273.46 257.95 273.46 C 251.31 273.39 244.66 273.57 238.02 273.50 C 236.18 273.46 234.34 273.38 232.50 273.34 C 234.76 273.09 237.00 272.80 239.26 272.58 C 238.91 270.91 238.64 269.22 238.46 267.52 C 248.99 267.37 259.52 267.57 270.05 267.56 Z" />
</g>
<g id="#7afc65ff">
<path fill="#7afc65" opacity="1.00" d=" M 130.41 267.50 C 151.75 267.43 173.10 267.47 194.44 267.51 C 195.15 269.77 196.38 271.81 198.03 273.51 C 196.33 273.48 194.64 273.46 192.95 273.45 C 189.29 273.44 185.63 273.49 181.96 273.50 C 178.33 273.50 174.70 273.52 171.06 273.54 C 164.06 273.60 157.05 273.60 150.04 273.54 C 146.38 273.52 142.71 273.50 139.04 273.50 C 135.71 273.49 132.39 273.45 129.06 273.47 C 128.30 273.48 126.76 273.50 126.00 273.50 C 128.63 272.54 130.06 270.22 130.41 267.50 Z" />
</g>
<g id="#0b8123ff">
<path fill="#0b8123" opacity="1.00" d=" M 44.05 272.79 C 44.75 272.89 46.14 273.09 46.84 273.19 C 49.19 273.43 51.57 273.47 53.94 273.47 C 54.01 281.45 53.87 289.44 54.07 297.43 C 50.90 297.56 47.74 297.41 44.60 297.06 C 43.27 289.04 43.98 280.87 44.05 272.79 Z" />
</g>
<g id="#108a24ff">
<path fill="#108a24" opacity="1.00" d=" M 53.94 273.47 C 57.61 273.44 61.29 273.45 64.97 273.45 C 64.92 281.44 65.03 289.44 64.99 297.44 C 61.35 297.54 57.71 297.49 54.07 297.43 C 53.87 289.44 54.01 281.45 53.94 273.47 Z" />
</g>
<g id="#159527ff">
<path fill="#159527" opacity="1.00" d=" M 64.97 273.45 C 68.64 273.44 72.32 273.46 76.00 273.46 C 76.12 281.46 75.84 289.46 76.06 297.46 C 72.37 297.55 68.68 297.51 64.99 297.44 C 65.03 289.44 64.92 281.44 64.97 273.45 Z" />
</g>
<g id="#1aa029ff">
<path fill="#1aa029" opacity="1.00" d=" M 76.00 273.46 C 80.01 273.44 84.02 273.51 88.04 273.46 C 88.17 281.46 88.24 289.46 88.10 297.47 C 84.08 297.55 80.07 297.50 76.06 297.46 C 75.84 289.46 76.12 281.46 76.00 273.46 Z" />
</g>
<g id="#21b02cff">
<path fill="#21b02c" opacity="1.00" d=" M 88.04 273.46 C 88.47 273.45 89.34 273.43 89.78 273.41 C 95.84 273.33 101.91 273.52 107.98 273.47 C 107.92 281.48 107.85 289.48 107.94 297.49 C 101.33 297.58 94.71 297.45 88.10 297.47 C 88.24 289.46 88.17 281.46 88.04 273.46 Z" />
</g>
<g id="#28be2fff">
<path fill="#28be2f" opacity="1.00" d=" M 107.98 273.47 C 111.65 273.46 115.32 273.48 118.98 273.51 C 119.06 281.50 119.03 289.50 119.03 297.49 C 115.33 297.53 111.64 297.50 107.94 297.49 C 107.85 289.48 107.92 281.48 107.98 273.47 Z" />
</g>
<g id="#2dc831ff">
<path fill="#2dc831" opacity="1.00" d=" M 118.98 273.51 C 121.32 273.52 123.66 273.56 126.00 273.50 C 126.76 273.50 128.30 273.48 129.06 273.47 C 128.96 281.47 128.92 289.48 129.02 297.49 C 125.69 297.52 122.36 297.50 119.03 297.49 C 119.03 289.50 119.06 281.50 118.98 273.51 Z" />
</g>
<g id="#31d233ff">
<path fill="#31d233" opacity="1.00" d=" M 129.06 273.47 C 132.39 273.45 135.71 273.49 139.04 273.50 C 139.03 281.49 138.99 289.49 138.95 297.49 C 135.64 297.52 132.33 297.50 129.02 297.49 C 128.92 289.48 128.96 281.47 129.06 273.47 Z" />
</g>
<g id="#37dc36ff">
<path fill="#37dc36" opacity="1.00" d=" M 139.04 273.50 C 142.71 273.50 146.38 273.52 150.04 273.54 C 149.94 281.52 149.95 289.51 149.95 297.49 C 146.28 297.52 142.62 297.49 138.95 297.49 C 138.99 289.49 139.03 281.49 139.04 273.50 Z" />
<path fill="#37dc36" opacity="1.00" d=" M 171.06 273.54 C 174.70 273.52 178.33 273.50 181.96 273.50 C 182.09 281.50 181.88 289.49 181.96 297.49 C 178.30 297.50 174.63 297.52 170.97 297.49 C 170.97 289.51 170.91 281.52 171.06 273.54 Z" />
</g>
<g id="#3ee63bff">
<path fill="#3ee63b" opacity="1.00" d=" M 150.04 273.54 C 157.05 273.60 164.06 273.60 171.06 273.54 C 170.91 281.52 170.97 289.51 170.97 297.49 C 163.96 297.51 156.95 297.51 149.95 297.49 C 149.95 289.51 149.94 281.52 150.04 273.54 Z" />
</g>
<g id="#31d133ff">
<path fill="#31d133" opacity="1.00" d=" M 181.96 273.50 C 185.63 273.49 189.29 273.44 192.95 273.45 C 192.93 281.46 193.11 289.47 193.00 297.49 C 189.32 297.50 185.64 297.53 181.96 297.49 C 181.88 289.49 182.09 281.50 181.96 273.50 Z" />
</g>
<g id="#2cc731ff">
<path fill="#2cc731" opacity="1.00" d=" M 192.95 273.45 C 194.64 273.46 196.33 273.48 198.03 273.51 C 200.03 273.52 202.03 273.52 204.03 273.52 C 204.13 281.51 203.98 289.50 203.95 297.49 C 200.29 297.50 196.64 297.52 193.00 297.49 C 193.11 289.47 192.93 281.46 192.95 273.45 Z" />
</g>
<g id="#22b22cff">
<path fill="#22b22c" opacity="1.00" d=" M 214.93 273.47 C 218.96 273.46 222.99 273.44 227.02 273.45 C 227.06 281.46 227.03 289.47 227.06 297.48 C 223.03 297.50 219.00 297.54 214.98 297.48 C 215.00 289.48 214.94 281.47 214.93 273.47 Z" />
</g>
<g id="#169828ff">
<path fill="#169828" opacity="1.00" d=" M 238.02 273.50 C 244.66 273.57 251.31 273.39 257.95 273.46 C 257.75 281.44 257.78 289.43 257.98 297.42 C 251.34 297.46 244.69 297.58 238.05 297.48 C 238.13 289.49 238.16 281.49 238.02 273.50 Z" />
</g>
<g id="#0f8824ff">
<path fill="#0f8824" opacity="1.00" d=" M 257.95 273.46 C 261.65 273.46 265.35 273.49 269.05 273.50 C 268.92 281.49 269.03 289.48 269.07 297.46 C 265.37 297.48 261.68 297.55 257.98 297.42 C 257.78 289.43 257.75 281.44 257.95 273.46 Z" />
</g>
</svg>
